HIERARCHY
ROOT Hips
{
	OFFSET 0.00000 0.00000 0.00000
	CHANNELS 6 Xposition Yposition Zposition Zrotation Yrotation Xrotation 
	JOINT LHipJoint
	{
		OFFSET 0 0 0
		CHANNELS 3 Zrotation Yrotation Xrotation
		JOINT LeftHip
		{
			OFFSET 1.86795 -1.59681 0.65681
			CHANNELS 3 Zrotation Yrotation Xrotation
			JOINT LeftKnee
			{
				OFFSET 2.30491 -6.33268 0.00000
				CHANNELS 3 Zrotation Yrotation Xrotation
				JOINT LeftAnkle
				{
					OFFSET 2.46780 -6.78022 0.00000
					CHANNELS 3 Zrotation Yrotation Xrotation
					JOINT LeftToe
					{
						OFFSET 0.07897 -0.21698 1.59652
						CHANNELS 3 Zrotation Yrotation Xrotation
						End Site
						{
							OFFSET 0.00000 -0.00000 0.82310
						}
					}
				}
			}
		}
	}
	JOINT RHipJoint
	{
		OFFSET 0 0 0
		CHANNELS 3 Zrotation Yrotation Xrotation
		JOINT RightHip
		{
			OFFSET -1.93650 -1.59681 0.65681
			CHANNELS 3 Zrotation Yrotation Xrotation
			JOINT RightKnee
			{
				OFFSET -2.29410 -6.30299 0.00000
				CHANNELS 3 Zrotation Yrotation Xrotation
				JOINT RightAnkle
				{
					OFFSET -2.48738 -6.83403 0.00000
					CHANNELS 3 Zrotation Yrotation Xrotation
					JOINT RightToe
					{
						OFFSET -0.08699 -0.23899 1.89395
						CHANNELS 3 Zrotation Yrotation Xrotation
						End Site
						{
							OFFSET -0.00000 -0.00000 0.96904
						}
					}
				}
			}
		}
	}
	JOINT lowerback
	{
		OFFSET 0 0 0
		CHANNELS 3 Zrotation Yrotation Xrotation
		JOINT Chest
		{
			OFFSET 0.03629 1.99740 -0.07548
			CHANNELS 3 Zrotation Yrotation Xrotation
			JOINT Chest2
			{
				OFFSET 0.03970 1.94298 0.17218
				CHANNELS 3 Zrotation Yrotation Xrotation
				JOINT lowerneck
				{
					OFFSET 0 0 0
					CHANNELS 3 Zrotation Yrotation Xrotation
					JOINT Neck
					{
						OFFSET -0.05054 1.79469 0.04241
						CHANNELS 3 Zrotation Yrotation Xrotation
						JOINT Head
						{
							OFFSET 0.05195 1.78475 -0.22133
							CHANNELS 3 Zrotation Yrotation Xrotation
							End Site
							{
								OFFSET 0.02420 1.80711 -0.07950
							}
						}
					}
				}
				JOINT LeftCollar
				{
					OFFSET 0 0 0
					CHANNELS 3 Zrotation Yrotation Xrotation
					JOINT LeftShoulder
					{
						OFFSET 2.92134 1.19850 0.36056
CHANNELS 3 Zrotation Xrotation Yrotation
						JOINT LeftElbow
						{
OFFSET 0 -4.841370 0.000000
CHANNELS 3 Zrotation Xrotation Yrotation
							JOINT LeftWrist
							{
OFFSET 0 -3.245200 -0.000000
CHANNELS 3 Zrotation Xrotation Yrotation
								JOINT lhand
								{
									OFFSET 0 0 0
CHANNELS 3 Zrotation Xrotation Yrotation
									JOINT LFingers
									{
OFFSET 0 -0.521220 0.000000
CHANNELS 3 Zrotation Xrotation Yrotation
										End Site
										{
OFFSET 0 -0.420220 0.000000
										}
									}
								}
								JOINT LThumb
								{
OFFSET 0 0.000000 0.000000
CHANNELS 3 Zrotation Xrotation Yrotation
									End Site
									{
OFFSET 0 -0.426640 0.426640
									}
								}
							}
						}
					}
				}
				JOINT RightCollar
				{
					OFFSET 0 0 0
					CHANNELS 3 Zrotation Yrotation Xrotation
					JOINT RightShoulder
					{
						OFFSET -2.84327 1.20795 0.50191
CHANNELS 3 Zrotation Xrotation Yrotation
						JOINT RightElbow
						{
OFFSET 0 -4.722840 0.000000
CHANNELS 3 Zrotation Xrotation Yrotation
							JOINT RightWrist
							{
OFFSET 0 -3.234590 0.000000
CHANNELS 3 Zrotation Xrotation Yrotation
								JOINT rhand
								{
									OFFSET 0 0 0
CHANNELS 3 Zrotation Xrotation Yrotation
									JOINT RFingers
									{
OFFSET 0 -0.307420 0.000000
CHANNELS 3 Zrotation Xrotation Yrotation
										End Site
										{
OFFSET 0 -0.247850 0.000000
										}
									}
								}
								JOINT RThumb
								{
OFFSET 0 0.000000 0.000000
CHANNELS 3 Zrotation Xrotation Yrotation
									End Site
									{
OFFSET 0 -0.251630 0.251630
									}
								}
							}
						}
					}
				}
			}
		}
	}
}
MOTION
Frames: 11
Frame Time: 0.008333333333333333
1.281636 15.086306 -2.909036 -3.077277 -33.545855 13.102967 0.000000 0.000000 0.000000 -26.683027 -21.697572 -36.736587 8.984656 16.797740 56.036858 1.138085 -0.430750 -20.034706 0.255654 3.230966 8.924420 0.000000 0.000000 0.000000 3.605652 28.225134 -53.264943 -5.676583 -14.098745 43.652929 0.274068 -13.478930 -15.408825 -0.109800 2.136643 -5.883568 -0.453254 0.069011 17.525255 0.400612 -0.013148 2.557280 0.691722 -0.011101 -7.074826 -5.229183 -0.343607 -13.426196 9.120119 0.135632 -4.027208 3.978120 0.283237 1.065766 0.000000 0.000000 0.000000 3.322207 -8.368259 -60.217984 131.889015 -52.204582 95.326575 69.407250 -69.975340 -33.869133 0.000000 0.000000 0.000000 -7.125000 0.000000 0.000000 -81.909813 47.649509 15.589377 0.000000 0.000000 0.000000 -6.911576 -19.495899 53.820332 -136.114074 -50.210840 -98.620840 42.219062 10.525669 2.718799 0.000000 0.000000 0.000000 7.125000 0.000000 0.000000 44.739854 25.293117 32.645568
0.620307 15.187639 -2.227650 -3.318771 -28.880566 13.060734 0.000000 0.000000 0.000000 -26.832944 -21.602981 -32.151476 9.129324 16.889956 56.536020 1.190999 -0.758972 -20.405071 0.008617 -0.487197 -1.338913 0.000000 0.000000 0.000000 -5.183843 38.675870 -49.311018 -2.565464 -9.955368 28.832848 0.573071 -15.113304 -13.340735 -0.393564 3.964460 -10.984904 0.683196 -0.532773 16.287834 1.285670 -0.549783 3.177427 1.091891 -0.292553 -5.730794 -4.849559 0.611284 -13.986267 7.366694 1.409911 -4.243830 3.352524 0.893590 0.985504 0.000000 0.000000 0.000000 3.566957 -9.123354 -60.576537 131.729745 -52.273624 95.200707 70.956485 -69.631431 -33.198320 0.000000 0.000000 0.000000 -7.125000 0.000000 0.000000 -80.779244 47.249050 13.028855 0.000000 0.000000 0.000000 -7.397370 -20.542348 53.799409 -135.855224 -50.342573 -98.421717 42.562307 9.858013 3.052226 0.000000 0.000000 0.000000 7.125000 0.000000 0.000000 44.934512 25.439936 32.706974
-0.049022 15.135112 -1.623067 -3.610744 -21.953896 12.821060 0.000000 0.000000 0.000000 -24.798879 -20.555815 -33.758901 11.630702 18.228884 64.811870 0.487348 -8.935298 -13.039368 2.107874 8.719205 25.144165 0.000000 0.000000 0.000000 -2.543625 38.059375 -45.790779 -2.838564 -10.427876 30.374856 0.290613 -9.698681 -5.576128 -2.063904 8.997779 -25.788556 2.037666 -1.517834 16.973351 2.330410 -1.507173 3.030079 1.659509 -0.771607 -6.251954 -4.028274 1.416601 -13.906396 4.928484 2.399960 -4.688840 2.400214 1.330530 0.772275 0.000000 0.000000 0.000000 3.612159 -8.690810 -59.818434 131.795064 -52.245378 95.252333 71.069508 -69.123810 -33.235465 0.000000 0.000000 0.000000 -7.125000 0.000000 0.000000 -80.916421 47.266133 13.200813 0.000000 0.000000 0.000000 -7.171044 -20.455837 53.824595 -135.623438 -50.459304 -98.243072 39.632009 11.385661 2.693183 0.000000 0.000000 0.000000 7.125000 0.000000 0.000000 44.251113 26.479271 29.633003
-0.595474 15.129082 -1.114485 -5.081354 -16.045800 13.157904 0.000000 0.000000 0.000000 -20.058216 -17.306295 -42.095813 15.760634 19.562987 77.517265 -0.364393 -10.634656 4.001852 2.567433 9.956928 28.839762 0.000000 0.000000 0.000000 3.741126 31.347890 -46.733414 -4.114132 -12.310265 36.839328 0.183496 -7.747093 -1.113304 -2.358014 9.574682 -27.610392 3.471902 -1.658826 19.146067 4.120340 -1.166520 2.957128 2.773955 -0.621116 -7.502689 -4.217636 2.952314 -13.965667 2.111791 4.497003 -6.801380 1.558659 2.348328 0.036235 0.000000 0.000000 0.000000 0.780948 -8.786696 -59.817675 131.061820 -52.558137 94.671365 68.416283 -67.630788 -35.446306 0.000000 0.000000 0.000000 -7.125000 0.000000 0.000000 -85.192389 48.359568 21.508478 0.000000 0.000000 0.000000 -9.238483 -21.920529 54.522965 -136.054604 -50.241030 -98.575019 38.417231 8.107715 4.854636 0.000000 0.000000 0.000000 7.125000 0.000000 0.000000 44.947252 28.972370 26.026162
-1.031277 15.170210 -0.638437 -3.931046 -11.011543 12.642377 0.000000 0.000000 0.000000 -19.101724 -14.836505 -49.093983 17.718460 19.874715 83.315892 -0.004133 -3.207593 -2.026781 2.693525 10.172151 29.544804 0.000000 0.000000 0.000000 6.208375 25.663292 -47.698006 -5.677479 -14.107779 43.672115 0.170148 -7.957090 -6.309887 -1.841353 8.527577 -24.328339 4.502125 -2.066057 19.779717 2.883889 -1.567076 3.666676 0.951935 -0.839164 -7.122938 -2.300585 4.860995 -13.294280 0.153897 6.741711 -8.980805 0.630463 3.434471 -0.719860 0.000000 0.000000 0.000000 1.927295 -10.827720 -57.917452 129.991759 -52.998487 93.819211 70.419531 -67.730834 -33.386772 0.000000 0.000000 0.000000 -7.125000 0.000000 0.000000 -81.056694 47.360513 13.727416 0.000000 0.000000 0.000000 -7.891099 -22.844273 55.809382 -135.230785 -50.654840 -97.939858 38.147050 8.438862 5.930062 0.000000 0.000000 0.000000 7.125000 0.000000 0.000000 45.402209 30.059383 24.562389
-1.440172 15.185932 -0.147382 -4.668894 -5.221720 13.626371 0.000000 0.000000 0.000000 -16.560322 -12.851138 -56.152548 16.342993 19.675505 79.251503 0.037065 -5.417791 -4.842834 0.771470 5.605879 15.645747 0.000000 0.000000 0.000000 9.048582 22.959784 -48.079958 -6.791512 -15.153547 48.080975 0.368472 -11.877091 -9.892353 -1.794592 8.403254 -23.958279 5.744876 -2.131372 19.236158 2.950163 -1.426503 3.773437 0.264634 -0.784234 -6.738789 -1.558604 6.115921 -12.502157 -1.133560 8.292929 -10.343892 0.105255 4.216477 -1.212169 0.000000 0.000000 0.000000 1.469639 -12.008432 -57.969884 129.242169 -53.296569 93.219389 74.174634 -64.603621 -29.830626 0.000000 0.000000 0.000000 -7.125000 0.000000 0.000000 -72.139271 44.540161 -1.959574 0.000000 0.000000 0.000000 -7.404925 -24.406120 55.288803 -133.262271 -51.591882 -96.407220 41.411699 11.955028 4.099372 0.000000 0.000000 0.000000 7.125000 0.000000 0.000000 45.243820 27.034257 30.125733
-1.747199 15.235480 0.357589 -4.130169 1.034151 13.422443 0.000000 0.000000 0.000000 -17.789081 -10.408195 -60.058231 13.196146 18.851845 69.733707 0.232652 2.723813 -10.533903 2.167209 9.205888 26.441667 0.000000 0.000000 0.000000 10.353366 20.165036 -46.525111 -7.578466 -15.800328 51.029807 0.540049 -15.219671 -14.294687 -1.253760 7.098520 -20.007574 5.247111 -2.063738 19.543086 3.007597 -1.389037 3.760007 0.607155 -0.750475 -6.905145 -1.376219 6.472540 -12.214212 -1.873368 8.748462 -9.869386 -0.134274 4.453109 -1.065876 0.000000 0.000000 0.000000 1.211963 -11.966396 -58.960682 129.223286 -53.304022 93.204349 71.329361 -68.076869 -32.081532 0.000000 0.000000 0.000000 -7.125000 0.000000 0.000000 -77.931589 46.553607 8.277244 0.000000 0.000000 0.000000 -8.136875 -24.410004 54.686225 -132.773975 -51.813541 -96.024052 42.165359 12.868646 5.451122 0.000000 0.000000 0.000000 7.125000 0.000000 0.000000 46.024581 27.998784 29.429093
-1.931441 15.372511 0.932187 -4.160535 6.642132 12.855745 0.000000 0.000000 0.000000 -19.148318 -7.759308 -60.609572 9.068855 16.848112 56.322471 0.121541 7.020017 -12.471189 1.748620 8.306752 23.658656 0.000000 0.000000 0.000000 12.764644 16.771958 -42.948781 -7.712498 -15.903670 51.520421 0.691337 -17.745142 -17.501768 -0.983991 6.313186 -17.696206 4.518242 -1.703099 19.243294 2.988484 -1.082754 3.946854 0.906602 -0.576673 -6.522557 -1.314936 6.436145 -13.015861 -1.620331 8.747793 -9.242364 -0.024131 4.453856 -0.755979 0.000000 0.000000 0.000000 1.365334 -11.987955 -58.766166 129.038805 -53.375658 93.056194 73.548962 -65.673998 -30.781956 0.000000 0.000000 0.000000 -7.125000 0.000000 0.000000 -74.833370 45.502261 2.516355 0.000000 0.000000 0.000000 -7.905004 -24.155954 54.440822 -132.707245 -51.843320 -95.971543 42.023111 12.911815 4.543265 0.000000 0.000000 0.000000 7.125000 0.000000 0.000000 45.555935 27.177426 30.336091
-1.992269 15.450228 1.535941 -6.603009 12.644506 12.006859 0.000000 0.000000 0.000000 -17.398602 -6.613116 -60.369383 5.856813 14.285436 44.399212 0.001923 10.763379 -15.368700 1.723638 8.262447 23.515532 0.000000 0.000000 0.000000 17.274064 13.833754 -38.472352 -7.102790 -15.417675 49.261747 0.951524 -20.138657 -19.206326 -0.682584 5.271343 -14.686660 6.039739 -1.350442 18.406985 3.486663 -0.332754 3.765430 0.386894 -0.228720 -6.258895 -1.236157 5.890066 -12.182332 -1.439586 8.030366 -9.851792 -0.043785 4.111900 -1.078179 0.000000 0.000000 0.000000 1.602007 -11.608689 -58.348927 128.984186 -53.397055 93.012463 70.726802 -67.593275 -34.070641 0.000000 0.000000 0.000000 -7.125000 0.000000 0.000000 -82.916976 47.686809 16.601709 0.000000 0.000000 0.000000 -6.698046 -23.833964 54.400097 -131.781032 -52.250806 -95.241026 43.329198 13.382401 3.794973 0.000000 0.000000 0.000000 7.125000 0.000000 0.000000 45.362741 25.758448 32.837335
-1.871052 15.582167 2.163254 -8.442279 17.465145 10.892746 0.000000 0.000000 0.000000 -14.964254 -7.530229 -57.519785 3.633808 11.656141 34.526581 -0.236378 17.577662 -22.687748 3.302192 11.168647 32.851014 0.000000 0.000000 0.000000 20.669641 11.434413 -33.162867 -6.383970 -14.790372 46.503874 1.206558 -22.345394 -21.116517 -0.519427 4.617525 -12.821022 6.288837 -0.500297 17.316626 3.801751 0.769625 3.586678 0.322813 0.315409 -5.824300 -1.935898 5.455372 -12.053967 -0.336373 7.605034 -9.605454 0.392563 3.927464 -1.089625 0.000000 0.000000 0.000000 1.484530 -10.574223 -58.298458 130.109406 -52.951215 93.913222 70.443259 -67.757932 -34.078002 0.000000 0.000000 0.000000 -7.125000 0.000000 0.000000 -82.816660 47.700708 16.573557 0.000000 0.000000 0.000000 -6.532868 -22.572808 54.551330 -131.968405 -52.169851 -95.389265 45.045727 15.302002 1.904195 0.000000 0.000000 0.000000 7.125000 0.000000 0.000000 44.644450 22.767107 37.369308
-1.529418 15.629508 2.780558 -10.994659 23.552896 10.520522 0.000000 0.000000 0.000000 -13.308343 -10.496776 -56.492818 3.127070 10.897798 31.936186 -0.168015 17.703603 -23.552413 4.199267 12.418870 37.233370 0.000000 0.000000 0.000000 23.451953 8.986829 -29.552037 -5.853455 -14.284752 44.390532 1.375350 -23.653525 -22.244803 -0.426995 4.193616 -11.621913 7.922596 -0.333633 14.990826 4.114456 1.101316 2.927211 -0.322321 0.464326 -5.227452 -1.825837 5.171661 -11.493636 0.345865 7.266126 -9.919814 0.555058 3.763842 -1.295944 0.000000 0.000000 0.000000 1.604192 -10.008343 -57.525320 129.697573 -53.116716 93.584059 68.663104 -69.798556 -34.406710 0.000000 0.000000 0.000000 -7.125000 0.000000 0.000000 -82.918035 47.935131 17.617659 0.000000 0.000000 0.000000 -6.116013 -21.106821 55.885325 -131.933368 -52.185324 -95.361638 44.121054 11.040679 4.461132 0.000000 0.000000 0.000000 7.125000 0.000000 0.000000 45.741279 25.976439 33.091319
